<?xml version="1.0" encoding="iso-8859-1"?>
<!-- Generator: Adobe Illustrator 22.0.1, SVG Export Plug-In . SVG Version: 6.00 Build 0)  -->
<svg version="1.1" xmlns="http://www.w3.org/2000/svg" xmlns:xlink="http://www.w3.org/1999/xlink" x="0px" y="0px"
	 viewBox="0 0 128 128" style="enable-background:new 0 0 128 128;" xml:space="preserve">
<g id="_x34_">
	<path style="fill:#23ABC2;" d="M91.851,83.66c-0.356,0-0.716-0.082-1.054-0.256l-27.432-14.12c-0.768-0.395-1.25-1.187-1.25-2.05
		v-21.9c0-1.273,1.031-2.306,2.306-2.306s2.306,1.032,2.306,2.306v20.494l26.183,13.476c1.13,0.583,1.576,1.974,0.993,3.105
		C93.494,83.204,92.686,83.66,91.851,83.66z"/>
	<path style="fill:#C93954;" d="M35.77,8.909C22.074,14.489,11.007,25.188,4.966,38.63C-2.067,30.191-1.628,17.648,6.28,9.716
		C14.373,1.623,27.331,1.346,35.77,8.909z M92.23,8.909c13.696,5.58,24.764,16.279,30.805,29.721
		c7.032-8.439,6.594-20.982-1.314-28.914C113.627,1.623,100.669,1.346,92.23,8.909z"/>
	<path style="fill:#43566B;" d="M122.073,66.922c0-31.842-25.824-57.644-57.643-57.644c-7.701,0-15.033,1.499-21.743,4.243
		c-13.696,5.58-24.764,16.279-30.805,29.721c-3.274,7.217-5.096,15.241-5.096,23.68c0,16.876,7.249,32.054,18.802,42.595
		l-10.247,9.264l3.094,3.42l10.725-9.696c9.749,7.554,21.978,12.061,35.269,12.061c13.279,0,25.504-4.506,35.254-12.057l10.72,9.692
		l3.094-3.42l-10.241-9.259C114.815,98.98,122.073,83.801,122.073,66.922z M96.99,101.121c-7.958,7.581-18.545,12.385-30.263,12.952
		v-6.547h-4.611v6.547c-11.718-0.567-22.305-5.371-30.263-12.952l4.673-4.673l-1.63-1.63l-4.673,4.673
		c-7.581-7.958-12.385-18.545-12.952-30.263h6.546v-4.612H17.27c0.567-11.719,5.371-22.306,12.952-30.264l4.673,4.673l1.63-1.63
		l-4.673-4.673C39.81,25.14,50.397,20.337,62.115,19.77v6.548h4.611V19.77c11.718,0.567,22.305,5.371,30.263,12.952l-4.673,4.674
		l1.63,1.63l4.673-4.674c7.581,7.958,12.385,18.545,12.952,30.264h-6.547v4.612h6.547c-0.567,11.719-5.371,22.305-12.952,30.264
		l-4.673-4.673l-1.63,1.63L96.99,101.121z"/>
</g>
<g id="Layer_1">
</g>
</svg>
